<svg xmlns="http://www.w3.org/2000/svg" viewBox="0 0 64 64">
  <defs>
    <linearGradient id="g" x1="0" y1="0" x2="1" y2="1">
      <stop offset="0" stop-color="#6366f1"/>
      <stop offset="1" stop-color="#06b6d4"/>
    </linearGradient>
  </defs>
  <rect x="2" y="2" width="60" height="60" rx="14" fill="#080d1a"/>
  <circle cx="32" cy="32" r="18" fill="url(#g)"/>
  <path d="M32 20a6 6 0 0 0-6 6v8a6 6 0 0 0 12 0v-8a6 6 0 0 0-6-6zm-10 14v0a2 2 0 0 0 2 2h1v3a7 7 0 0 0 14 0v-3h1a2 2 0 0 0 2-2v-1h-3v3a4 4 0 0 1-8 0v-3h-9z" fill="#fff"/>
</svg>
